Coordinates
version=1
nRows=14
nColumns=28
inDegrees=yes

Units are S.I. units (second, meters, Newtons, ...)
Angles are in degrees.

endheader
time	pelvis_tilt	pelvis_list	pelvis_rotation	pelvis_tx	pelvis_ty	pelvis_tz	hip_flexion_r	hip_adduction_r	hip_rotation_r	knee_angle_r	ankle_angle_r	subtalar_angle_r	mtp_angle_r	hip_flexion_l	hip_adduction_l	hip_rotation_l	knee_angle_l	socket_flexion	socket_adduction	socket_rotation	socket_tx	socket_ty	socket_tz	foot_flex	lumbar_extension	lumbar_bending	lumbar_rotation
      0.00000000	     -1.20864165	     -7.28020665	     -8.56482473	     -0.87988857	      0.99183577	      0.27449669	    -24.46060751	      9.75231527	      5.50159195	     -2.38513808	      5.79340892	    -12.47253867	      8.26764008	     26.03956426	    -10.80339212	     10.26673121	      1.37963654	      5.71849058	      0.00000000	      0.00000000	      0.00000000	     -0.00244241	      0.00000000	     -0.51671155	    -10.99194123	      5.65138029	     10.56155513
      0.00416667	     -1.22469153	     -7.32381359	     -8.56928171	     -0.87444257	      0.99130930	      0.27420718	    -24.53843708	      9.73657982	      5.53716640	     -2.78109396	      5.68865771	    -12.50669875	      8.37788522	     25.79543449	    -10.76868470	     10.20548348	      1.43240743	      5.68769169	      0.00000000	      0.00000000	      0.00000000	     -0.00278519	      0.00000000	     -0.82581753	    -10.95127767	      5.68793341	     10.54206121
      0.00833333	     -1.28613101	     -7.36248967	     -8.50002816	     -0.86860990	      0.99064123	      0.27381107	    -24.66828918	      9.74505375	      5.59500889	     -3.01250054	      5.64203561	    -12.50430236	      8.39247588	     25.62954511	    -10.68788444	     10.20798144	      1.41243072	      5.66780472	      0.00000000	      0.00000000	      0.00000000	     -0.00310803	      0.00000000	     -0.88853691	    -10.79016194	      5.73695811	     10.54583645
      0.01250000	     -1.31546079	     -7.47460254	     -8.57988749	     -0.86289453	      0.99015854	      0.27356377	    -24.61775826	      9.77305951	      5.52760107	     -3.67196495	      5.38763729	    -12.56242402	      8.46939207	     25.31879929	    -10.76382130	     10.18878527	      1.57785434	      5.67087081	      0.00000000	      0.00000000	      0.00000000	     -0.00356077	      0.00000000	     -1.40107700	    -10.77175603	      5.85094591	     10.54070667
      0.01666667	     -1.38104571	     -7.51940001	     -8.50878527	     -0.85660793	      0.98945628	      0.27313982	    -24.73254238	      9.78791094	      5.59244082	     -3.95824097	      5.32378788	    -12.55974672	      8.48894391	     25.11623803	    -10.68603169	     10.20570208	      1.57543669	      5.65838654	      0.00000000	      0.00000000	      0.00000000	     -0.00407094	      0.00000000	     -1.46937862	    -10.59050056	      5.91424536	     10.54933055
      0.02083333	     -1.46447164	     -7.70321999	     -8.92072684	     -0.85044912	      0.98905695	      0.27336237	    -24.52280034	      9.75568565	      5.64273784	     -4.91637498	      5.00429399	    -12.41726583	      9.74156077	     24.34777436	    -11.06305884	      9.97344765	      2.86959818	      6.38890723	      0.00000000	      0.00000000	      0.00000000	     -0.00456171	      0.00000000	     -1.89201386	    -10.53822379	      6.07458053	     11.00498371
      0.02500000	     -1.50247036	     -7.73753213	     -8.89050630	     -0.84408668	      0.98849112	      0.27301439	    -24.56310288	      9.74186619	      5.63159998	     -5.39499395	      4.77904885	    -12.45447301	      9.77181718	     24.09166485	    -11.00156350	     10.04648360	      2.86832091	      6.35054379	      0.00000000	      0.00000000	      0.00000000	     -0.00511098	      0.00000000	     -2.18944334	    -10.42378998	      6.09407917	     10.97982226
      0.02916667	     -1.55393794	     -7.81932588	     -8.87632853	     -0.83767935	      0.98791525	      0.27259311	    -24.52240971	      9.76871079	      5.56355516	     -6.01351927	      4.48879442	    -12.52728404	      9.83241400	     23.81163417	    -10.99131022	     10.09094627	      2.95947526	      6.37973854	      0.00000000	      0.00000000	      0.00000000	     -0.00576595	      0.00000000	     -2.49587099	    -10.32900660	      6.19686261	     10.95991484
      0.03333333	     -1.62110709	     -7.89105125	     -8.86237505	     -0.83121138	      0.98740482	      0.27221556	    -24.46664313	      9.79240346	      5.55457425	     -6.62540750	      4.21880213	    -12.58632033	      9.90324039	     23.52536452	    -10.98600607	     10.18934334	      3.08275328	      6.43741849	      0.00000000	      0.00000000	      0.00000000	     -0.00637168	      0.00000000	     -2.77897023	    -10.20178140	      6.27883115	     10.94669511
      0.03750000	     -1.86584687	     -7.90902929	     -9.08740064	     -0.82432779	      0.98675524	      0.27227412	    -24.23257741	      9.70453919	      5.71095003	     -7.23781783	      3.53396694	    -12.86487010	     11.75685320	     23.08900119	    -11.09106427	     10.02448984	      3.93220643	      6.94098899	      0.00000000	      0.00000000	      0.00000000	     -0.00695667	      0.00000000	     -3.07485223	     -9.80980658	      6.29148199	     11.21049509
      0.04166667	     -1.91671705	     -7.93087471	     -9.00140689	     -0.81740916	      0.98623742	      0.27180014	    -24.32351930	      9.69005558	      5.79096367	     -7.60057558	      3.42415991	    -12.87054424	     11.75006087	     22.82690858	    -10.99066499	     10.13785685	      3.87156160	      6.90403277	      0.00000000	      0.00000000	      0.00000000	     -0.00778043	      0.00000000	     -3.15097177	     -9.60677119	      6.33317142	     11.20048832
      0.04583333	     -1.92836304	     -8.02638419	     -9.00864530	     -0.81115685	      0.98597021	      0.27136123	    -24.07481907	      9.72270993	      5.56576201	     -8.64009832	      2.87901041	    -13.06240187	     11.70662736	     22.49636197	    -11.02022509	     10.30838602	      3.94683977	      6.95090973	      0.00000000	      0.00000000	      0.00000000	     -0.00847797	      0.00000000	     -3.56151312	     -9.62901573	      6.43191581	     11.10987584
      0.05000000	     -1.98110064	     -8.03452014	     -8.89368232	     -0.80418166	      0.98555588	      0.27088905	    -24.13537594	      9.71708392	      5.68745071	     -9.03315281	      2.74691833	    -13.06039935	     11.70301464	     22.23237860	    -10.90378462	     10.42171951	      3.90184452	      6.93747165	      0.00000000	      0.00000000	      0.00000000	     -0.00933327	      0.00000000	     -3.65224457	     -9.40851096	      6.45149785	     11.09629424
      0.05416667	     -2.06769938	     -8.05843987	     -8.94726901	     -0.79781652	      0.98535186	      0.27053271	    -23.75516268	      9.68076338	      5.47737059	    -10.13797059	      2.08257644	    -13.29597823	     11.67475745	     21.92459821	    -10.89926287	     10.53250853	      4.08129271	      7.06587588	      0.00000000	      0.00000000	      0.00000000	     -0.00995481	      0.00000000	     -4.03994724	     -9.31907841	      6.47907195	     10.98455902
